<?xml version="1.0" standalone="no"?>
<!DOCTYPE svg PUBLIC "-//W3C//DTD SVG 20010904//EN"
 "http://www.w3.org/TR/2001/REC-SVG-20010904/DTD/svg10.dtd">
<svg version="1.0" xmlns="http://www.w3.org/2000/svg"
 width="600.000000pt" height="600.000000pt" viewBox="0 0 600.000000 600.000000"
 preserveAspectRatio="xMidYMid meet">
<metadata>
Created by potrace 1.14, written by Peter Selinger 2001-2017
</metadata>
<g transform="translate(0.000000,600.000000) scale(0.100000,-0.100000)"
fill="#000000" stroke="none">
<path d="M2645 4675 c-249 -63 -500 -209 -681 -397 -87 -90 -120 -140 -174
-269 -30 -70 -52 -108 -78 -130 l-36 -32 -190 7 c-183 7 -195 6 -289 -18 -252
-65 -603 -266 -763 -438 -89 -97 -166 -206 -221 -314 -89 -175 -123 -304 -123
-469 0 -319 109 -629 298 -852 111 -129 382 -330 572 -422 l95 -46 2033 -3
2034 -2 167 120 c334 237 532 414 586 520 70 139 107 306 107 485 0 255 -78
454 -240 613 -105 102 -296 182 -435 182 -23 0 -76 -9 -117 -20 -41 -11 -80
-20 -87 -20 -14 0 -20 26 -33 144 -11 104 -45 185 -115 276 -89 115 -278 242
-425 283 -86 25 -227 40 -304 33 -39 -3 -76 -3 -82 2 -6 4 -29 39 -52 77 -148
255 -369 472 -597 587 -191 97 -336 128 -584 127 -149 0 -190 -4 -266 -24z
m1708 -972 c-7 -2 -19 -2 -25 0 -7 3 -2 5 12 5 14 0 19 -2 13 -5z m193 -37
c134 -49 278 -179 318 -289 9 -23 20 -80 26 -127 13 -121 26 -155 73 -204 61
-63 108 -74 212 -50 44 10 115 18 157 18 71 0 85 -4 163 -43 146 -72 231 -179
277 -348 30 -112 30 -325 -1 -438 -34 -127 -73 -200 -144 -269 -81 -79 -234
-201 -424 -337 l-151 -109 -230 0 c-247 0 -385 8 -376 21 3 5 0 9 -7 9 -9 0
-9 4 1 15 6 8 9 19 5 25 -3 5 0 10 8 10 11 0 14 24 14 120 0 93 -3 120 -14
120 -9 0 -13 13 -13 40 0 27 4 40 13 40 11 0 14 27 14 120 0 93 -3 120 -14
120 -9 0 -13 13 -13 40 0 26 4 40 13 40 10 0 14 58 16 280 2 247 0 280 -14
280 -11 0 -15 11 -15 40 0 43 16 55 23 18 2 -13 3 41 3 120 0 110 -3 142 -13
142 -8 0 -13 14 -13 40 0 29 4 40 15 40 13 0 15 28 15 188 0 218 5 263 32 270
22 5 24 22 3 22 -8 0 -15 5 -15 10 0 6 -7 10 -16 10 -10 0 -14 6 -11 14 3 7 0
19 -6 25 -11 11 10 6 89 -23z"/>
</g>
</svg>
