<?xml version="1.0" standalone="no"?>
<!DOCTYPE svg PUBLIC "-//W3C//DTD SVG 20010904//EN"
 "http://www.w3.org/TR/2001/REC-SVG-20010904/DTD/svg10.dtd">
<svg version="1.0" xmlns="http://www.w3.org/2000/svg"
 width="512.000000pt" height="512.000000pt" viewBox="0 0 512.000000 512.000000"
 preserveAspectRatio="xMidYMid meet">
<metadata>
Created by potrace 1.14, written by Peter Selinger 2001-2017
</metadata>
<g transform="translate(0.000000,512.000000) scale(0.100000,-0.100000)"
fill="#000000" stroke="none">
<path d="M2292 3741 c-256 -78 -490 -255 -569 -431 -75 -166 -55 -156 -288
-150 -134 3 -188 -11 -341 -84 -294 -141 -478 -331 -565 -583 -65 -190 -35
-446 79 -667 37 -74 64 -109 142 -186 105 -106 235 -199 361 -260 l83 -40
1439 0 1439 0 92 64 c248 173 397 305 445 395 67 126 95 322 67 466 -58 298
-313 488 -564 421 -52 -14 -53 -14 -61 7 -4 12 -11 51 -15 87 -9 89 -46 161
-126 241 -116 116 -288 182 -459 178 -63 -2 -77 1 -86 16 -36 64 -131 198
-172 244 -111 127 -295 240 -458 282 -55 14 -122 22 -215 25 -126 3 -141 2
-228 -25z m301 -118 c-7 -2 -19 -2 -25 0 -7 3 -2 5 12 5 14 0 19 -2 13 -5z
m148 -24 c140 -46 239 -109 346 -223 43 -46 103 -124 133 -175 76 -127 91
-135 245 -137 133 -1 198 -18 284 -74 100 -63 150 -140 162 -247 10 -97 30
-141 74 -172 37 -25 45 -25 215 -5 76 8 153 -21 226 -88 68 -63 98 -119 120
-229 21 -106 14 -208 -22 -321 -25 -75 -34 -90 -94 -149 -65 -64 -250 -209
-361 -283 l-55 -36 -694 2 c-544 2 -694 6 -698 16 -2 6 -9 12 -15 12 -9 0 -12
259 -12 1060 0 583 2 1060 6 1060 3 0 11 -6 18 -12 11 -11 13 -10 8 5 -9 24
32 23 114 -4z"/>
</g>
</svg>
